# xmcd
#
# Track frame offsets:
#	150
#	21596
#	42575
#	62725
#	84136
#	103262
#	122806
#	142308
#	167676
#	186948
#	198572
#	213720
#	226737
#	240799
#	255613
#	270817
#	292102
#	314398
#	338930
#
# Disc length: 4694 seconds
#
# Revision: 0
# Processed by: cddbd v1.5.2PL0 Copyright (c) Steve Scherf et al.
# Submitted via: dBpowerAMP V4.0
#
DISCID=1f125413
DTITLE=Paul Anka - Love Songs
DYEAR=2009
DGENRE=Easy Listening
TTITLE0=She's My Woman
TTITLE1=It's Hard To Say Goodbye (With Celine Deon)
TTITLE2=One Kiss (With Tevin Campbell)
TTITLE3=Do I Love You (With Anthea Anka)
TTITLE4=You Are My Destiny (With Patti Labelle)
TTITLE5=Let Me Get To Know You
TTITLE6=She's A Lady (With Tom Jones)
TTITLE7=My Way (With Frank Sinatra)
TTITLE8=Freedom For The World
TTITLE9=(You're) Having My Baby (With Odia Coates)
TTITLE10=I Don't Like To Sleep Alone (With Odia Coates)
TTITLE11=(I Believe) There's Nothing Stronger Than Our Love (With Odia Coates)
TTITLE12=One Man Woman, One Woman Man (With Odia Coates)
TTITLE13=Times Of Your Life
TTITLE14=Anytime (I'll Be There)
TTITLE15=I Don't Want Run Your Life
TTITLE16=Hold Me Untill The Morning Comes (With Odia Coates)
TTITLE17=I Can't Take This Anymore
TTITLE18=My Best Friend's Wife
EXTD=
EXTT0=
EXTT1=
EXTT2=
EXTT3=
EXTT4=
EXTT5=
EXTT6=
EXTT7=
EXTT8=
EXTT9=
EXTT10=
EXTT11=
EXTT12=
EXTT13=
EXTT14=
EXTT15=
EXTT16=
EXTT17=
EXTT18=
PLAYORDER=
